# xmcd
#
# Track frame offsets: 
#        150
#        20848
#        44721
#        68911
#        92664
#        117360
#        140036
#        163515
#        188831
#        225600
#        252686
#        276976
#        299307
#
# Disc length: 4269 seconds
#
# Revision: 0
# Processed by: cddbd v1.5.2PL0 Copyright (c) Steve Scherf et al.
# Submitted via: ExactAudioCopy v1.0b1
#
DISCID=cd10ab0d
DTITLE=Bang Kieu - NHUNG TINH KHUC CHON LOC
DYEAR=2010
DGENRE=
TTITLE0=Em Oi Ha Noi Pho
TTITLE1=Xin Dung Quay Lai
TTITLE2=Ban Tinh Ca Cho Em
TTITLE3=Em Den Tham Anh Dem 30
TTITLE4=Bien Can
TTITLE5=Phut Cuoi
TTITLE6=Ban Tinh Cuoi
TTITLE7=LK Mua Thu Cho Em and Mong Duoi Hoa
TTITLE8=Buon Oi Chao Mi
TTITLE9=LK Buc Thu Tinh Dau Tien-Ngay Cuoi-Ngay Tan Hon
TTITLE10=Cho Nguoi
TTITLE11=Chi Toi
TTITLE12=Tinh Yeu Cho Em
EXTD=
EXTT0=
EXTT1=
EXTT2=
EXTT3=
EXTT4=
EXTT5=
EXTT6=
EXTT7=
EXTT8=
EXTT9=
EXTT10=
EXTT11=
EXTT12=
PLAYORDER=
